<svg xmlns="http://www.w3.org/2000/svg" width="1200" height="630" viewBox="0 0 1200 630">
  <defs>
    <linearGradient id="bg" x1="0%" y1="0%" x2="100%" y2="100%">
      <stop offset="0%" style="stop-color:#0F172A"/>
      <stop offset="100%" style="stop-color:#1E1B4B"/>
    </linearGradient>
  </defs>

  <!-- 배경 -->
  <rect width="1200" height="630" fill="url(#bg)"/>

  <!-- 상단 텍스트 영역 -->
  <text x="600" y="170" font-family="system-ui, -apple-system, sans-serif" font-size="26" font-weight="600" fill="#A5B4FC" letter-spacing="2" text-anchor="middle">CONFIGDECK</text>
  <text x="600" y="270" font-family="system-ui, -apple-system, sans-serif" font-size="76" font-weight="800" fill="white" text-anchor="middle">AI Config Catalog</text>
  <text x="600" y="325" font-family="system-ui, -apple-system, sans-serif" font-size="30" font-weight="600" fill="#C7D2FE" text-anchor="middle">for 4 AI Coding Tools + Skills</text>

  <!-- 5개 도구 아이콘 1행 (각각 110×110 박스, 30px 간격) -->
  <!-- 5개 박스 + 4개 간격 = 5×110 + 4×30 = 670, 시작 X = (1200 - 670)/2 = 265 -->

  <!-- 1. AGENTS.md (slate) -->
  <g transform="translate(265, 380)">
    <circle cx="55" cy="55" r="55" fill="#475569"/>
    <svg x="22" y="22" width="66" height="66" viewBox="0 0 96 96">
      <g stroke="#FFFFFF" stroke-width="14" stroke-linecap="round" fill="none">
        <line x1="48" y1="12" x2="28" y2="46"/>
        <line x1="65" y1="43" x2="85" y2="78"/>
        <line x1="50" y1="77" x2="10" y2="77"/>
      </g>
    </svg>
    <text x="55" y="145" font-family="system-ui" font-size="16" font-weight="600" fill="#94A3B8" text-anchor="middle">AGENTS.md</text>
  </g>

  <!-- 2. Cursor (검정) -->
  <g transform="translate(405, 380)">
    <circle cx="55" cy="55" r="55" fill="#0F172A" stroke="#475569" stroke-width="2"/>
    <svg x="22" y="22" width="66" height="66" viewBox="0 0 680 720">
      <g transform="translate(106.635, 93.955)">
        <path
          fill="#FFFFFF"
          d="M457.43,125.94L244.42,2.96c-6.84-3.95-15.28-3.95-22.12,0L9.3,125.94c-5.75,3.32-9.3,9.46-9.3,16.11v247.99c0,6.65,3.55,12.79,9.3,16.11l213.01,122.98c6.84,3.95,15.28,3.95,22.12,0l213.01-122.98c5.75-3.32,9.3-9.46,9.3-16.11v-247.99c0-6.65-3.55-12.79-9.3-16.11h-.01ZM444.05,151.99l-205.63,356.16c-1.39,2.4-5.06,1.42-5.06-1.36v-233.21c0-4.66-2.49-8.97-6.53-11.31L24.87,145.67c-2.4-1.39-1.42-5.06,1.36-5.06h411.26c5.84,0,9.49,6.33,6.57,11.39h-.01Z"
        />
      </g>
    </svg>
    <text x="55" y="145" font-family="system-ui" font-size="16" font-weight="600" fill="#94A3B8" text-anchor="middle">Cursor</text>
  </g>

  <!-- 3. Copilot (파랑) -->
  <g transform="translate(545, 380)">
    <circle cx="55" cy="55" r="55" fill="#0969DA"/>
    <svg x="22" y="22" width="66" height="66" viewBox="0 0 96 96">
      <path
        fill-rule="evenodd"
        clip-rule="evenodd"
        fill="#FFFFFF"
        d="M95.6877 67.9677C92.2446 73.9488 72.2522 88.0617 48 88.0617C23.7478 88.0617 3.75535 73.9488 0.312312 67.9677C0.0605215 67.5303 -0.0207525 67.031 -0.0207525 66.5263L-0.0207524 55.8787C-0.0207524 55.4373 0.0473833 54.9986 0.210699 54.5885C1.69959 50.8499 5.59895 45.4192 10.6313 43.9621C11.2985 42.2494 12.2867 39.7456 13.2087 37.8974C13.0543 36.4833 13 35.0248 13 33.5512C13 28.2274 14.1285 23.5576 17.5288 20.0801C19.117 18.4559 21.0876 17.21 23.4246 16.2735C29.0217 11.7264 36.992 7.90112 47.9136 7.90112C58.8352 7.90112 66.9783 11.7264 72.5754 16.2735C74.9124 17.21 76.883 18.4559 78.4712 20.0801C81.8715 23.5576 83 28.2274 83 33.5512C83 35.0248 82.9457 36.4833 82.7913 37.8974C83.7133 39.7456 84.7015 42.2494 85.3687 43.9621C90.401 45.4192 94.3004 50.8499 95.7893 54.5885C95.9526 54.9986 96.0208 55.4373 96.0208 55.8787L96.0208 66.5263C96.0208 67.031 95.9395 67.5303 95.6877 67.9677ZM51.253 32.2606C51.0828 30.9345 51.0018 29.747 50.9995 28.686L50.9995 28.6021C51.0048 25.5242 51.6776 23.5215 52.7524 22.2914C54.1172 20.7295 56.9379 19.5328 62.8829 20.1762C68.9059 20.828 72.2725 22.3229 74.1812 24.2749C76.0291 26.1648 76.9999 28.9922 76.9999 33.5512C76.9999 38.3951 76.3018 41.2568 74.767 42.9977C73.3075 44.6531 70.4335 46 64.1386 46C59.2994 46 56.5326 44.4261 54.7637 42.2493C52.8644 39.912 51.7955 36.4878 51.253 32.2606ZM44.747 32.2606C44.9172 30.9344 44.9982 29.747 45.0005 28.686L45.0005 28.6021C44.9952 25.5242 44.3224 23.5214 43.2476 22.2914C41.8828 20.7295 39.0621 19.5328 33.1171 20.1762C27.0941 20.828 23.7275 22.3229 21.8188 24.2749C19.9709 26.1647 19.0001 28.9922 19.0001 33.5512C19.0001 38.3951 19.6982 41.2568 21.233 42.9977C22.6925 44.6531 25.5665 46 31.8614 46C36.7006 46 39.4674 44.4261 41.2363 42.2493C43.1356 39.9119 44.2045 36.4878 44.747 32.2606ZM48.6889 43.9983C48.4592 43.9995 48.9185 43.9983 48.6889 43.9983C48.4594 43.9983 47.5408 43.9995 47.3111 43.9983C46.8877 44.7075 46.4168 45.3882 45.8926 46.0332C42.8139 49.8219 38.2182 52 31.8613 52C24.9615 52 19.9049 50.564 16.7324 46.9657C16.552 46.7611 16.3906 46.5469 16.3906 46.5469L16 46.9657L16 73.3023C21.7392 76.4213 34.0576 82.0184 48 82.0184C61.9424 82.0184 74.2608 76.4213 80 73.3023L80 46.9657L79.6094 46.5469C79.6094 46.5469 79.4772 46.728 79.2676 46.9657C76.0951 50.564 71.0385 52 64.1387 52C57.7818 52 53.1861 49.8219 50.1074 46.0332C49.5832 45.3882 49.1123 44.7075 48.6889 43.9983Z"
      />
      <path fill="#FFFFFF" d="M58 57C60.2091 57 62 58.7909 62 61L62 69C62 71.2092 60.2091 73 58 73C55.7909 73 54 71.2092 54 69L54 61C54 58.7909 55.7909 57 58 57Z"/>
      <path fill="#FFFFFF" d="M38 57C40.2091 57 42 58.7909 42 61L42 69C42 71.2092 40.2091 73 38 73C35.7909 73 34 71.2092 34 69L34 61C34 58.7909 55.7909 57 38 57Z"/>
    </svg>
    <text x="55" y="145" font-family="system-ui" font-size="16" font-weight="600" fill="#94A3B8" text-anchor="middle">Copilot</text>
  </g>

  <!-- 4. Claude Code (오렌지) -->
  <g transform="translate(685, 380)">
    <circle cx="55" cy="55" r="55" fill="#D97757"/>
    <svg x="22" y="22" width="66" height="66" viewBox="0 0 16 16">
      <path
        fill="#FFFFFF"
        d="m3.127 10.604 3.135-1.76.053-.153-.053-.085H6.11l-.525-.032-1.791-.048-1.554-.065-1.505-.08-.38-.081L0 7.832l.036-.234.32-.214.455.04 1.009.069 1.513.105 1.097.064 1.626.17h.259l.036-.105-.089-.065-.068-.064-1.566-1.062-1.695-1.121-.887-.646-.48-.327-.243-.306-.104-.67.435-.48.585.04.15.04.593.456 1.267.981 1.654 1.218.242.202.097-.068.012-.049-.109-.181-.9-1.626-.96-1.655-.428-.686-.113-.411a2 2 0 0 1-.068-.484l.496-.674L4.446 0l.662.089.279.242.411.94.666 1.48 1.033 2.014.302.597.162.553.06.17h.105v-.097l.085-1.134.157-1.392.154-1.792.052-.504.25-.605.497-.327.387.186.319.456-.045.294-.19 1.23-.37 1.93-.243 1.29h.142l.161-.16.654-.868 1.097-1.372.484-.545.565-.601.363-.287h.686l.505.751-.226.775-.707.895-.585.759-.839 1.13-.524.904.048.072.125-.012 1.897-.403 1.024-.186 1.223-.21.553.258.06.263-.218.536-1.307.323-1.533.307-2.284.54-.028.02.032.04 1.029.098.44.024h1.077l2.005.15.525.346.315.424-.053.323-.807.411-3.631-.863-.872-.218h-.12v.073l.726.71 1.331 1.202 1.667 1.55.084.383-.214.302-.226-.032-1.464-1.101-.565-.497-1.28-1.077h-.084v.113l.295.432 1.557 2.34.08.718-.112.234-.404.141-.444-.08-.911-1.28-.94-1.44-.759-1.291-.093.053-.448 4.821-.21.246-.484.186-.403-.307-.214-.496.214-.98.258-1.28.21-1.016.19-1.263.112-.42-.008-.028-.092.012-.953 1.307-1.448 1.957-1.146 1.227-.274.109-.477-.247.045-.44.266-.39 1.586-2.018.956-1.25.617-.723-.004-.105h-.036l-4.212 2.736-.75.096-.324-.302.04-.496.154-.162 1.267-.871z"
      />
    </svg>
    <text x="55" y="145" font-family="system-ui" font-size="16" font-weight="600" fill="#94A3B8" text-anchor="middle">Claude</text>
  </g>

  <!-- 5. Agent Skills (보라) -->
  <g transform="translate(825, 380)">
    <circle cx="55" cy="55" r="55" fill="#7C3AED"/>
    <svg x="22" y="22" width="66" height="66" viewBox="0 0 24 24">
      <path
        fill="none"
        stroke="#FFFFFF"
        stroke-width="2"
        stroke-linecap="round"
        stroke-linejoin="round"
        d="M9.937 15.5A2 2 0 0 0 8.5 14.063l-6.135-1.582a.5.5 0 0 1 0-.962L8.5 9.936A2 2 0 0 0 9.937 8.5l1.582-6.135a.5.5 0 0 1 .963 0L14.063 8.5A2 2 0 0 0 15.5 9.937l6.135 1.582a.5.5 0 0 1 0 .962L15.5 14.063a2 2 0 0 0-1.437 1.437l-1.582 6.135a.5.5 0 0 1-.963 0z"
      />
      <path fill="none" stroke="#FFFFFF" stroke-width="2" stroke-linecap="round" stroke-linejoin="round" d="M20 3v4"/>
      <path fill="none" stroke="#FFFFFF" stroke-width="2" stroke-linecap="round" stroke-linejoin="round" d="M22 5h-4"/>
      <path fill="none" stroke="#FFFFFF" stroke-width="2" stroke-linecap="round" stroke-linejoin="round" d="M4 17v2"/>
      <path fill="none" stroke="#FFFFFF" stroke-width="2" stroke-linecap="round" stroke-linejoin="round" d="M5 18H3"/>
    </svg>
    <text x="55" y="145" font-family="system-ui" font-size="16" font-weight="600" fill="#94A3B8" text-anchor="middle">Skills</text>
  </g>

  <!-- 하단 도메인 -->
  <text x="600" y="595" font-family="system-ui, -apple-system, sans-serif" font-size="22" fill="#64748B" text-anchor="middle">configdeck.dev/ai-config</text>
</svg>
